<?xml version="1.0" encoding="utf-8"?>
<!-- Generator: Adobe Illustrator 24.1.2, SVG Export Plug-In . SVG Version: 6.00 Build 0)  -->
<svg version="1.1" id="Capa_1" xmlns="http://www.w3.org/2000/svg" xmlns:xlink="http://www.w3.org/1999/xlink" x="0px" y="0px"
	 viewBox="0 0 20 20" style="enable-background:new 0 0 20 20;" xml:space="preserve">
<style type="text/css">
	.st0{fill:#5D8993;}
</style>
<g>
	<path class="st0" d="M0.1,10c0,5.5,4.4,9.9,9.9,9.9s9.9-4.4,9.9-9.9S15.5,0.1,10,0.1C4.5,0.1,0.1,4.5,0.1,10z M14.3,11.3l-4.4,4.8
		c-0.4,0.4-0.9,0.6-1.4,0.6c-0.4,0-0.9-0.2-1.3-0.5c-0.8-0.7-0.8-1.9-0.1-2.6l3.3-3.6L7.1,6.4C6.4,5.6,6.5,4.4,7.2,3.7
		C8,3.1,9.1,3.1,9.8,3.9l4.5,4.9C15,9.5,15,10.6,14.3,11.3z"/>
</g>
</svg>
